<mxfile host="app.diagrams.net" modified="2024-04-07T20:31:27.894Z" agent="Mozilla/5.0 (Windows NT 10.0; Win64; x64) AppleWebKit/537.36 (KHTML, like Gecko) Chrome/123.0.0.0 Safari/537.36 Edg/123.0.0.0" etag="D9rEt6djK3trQVVmocAi" version="24.2.2" type="github">
  <diagram name="第 1 页" id="E_9ZUGZub5r1t7u37brj">
    <mxGraphModel dx="1000" dy="605" grid="1" gridSize="10" guides="1" tooltips="1" connect="1" arrows="1" fold="1" page="1" pageScale="1" pageWidth="850" pageHeight="1100" math="0" shadow="0">
      <root>
        <mxCell id="0" />
        <mxCell id="1" parent="0" />
        <mxCell id="_085nPTa5El5RhCGtDlV-1" value="&lt;p style=&quot;font-size: 18px;&quot;&gt;&lt;font style=&quot;font-size: 18px;&quot; face=&quot;Times New Roman&quot;&gt;Research goal: Optimizing the usability and robustness of deep neural network models in resource-constrained AIoT devices&lt;/font&gt;&lt;/p&gt;" style="rounded=1;whiteSpace=wrap;html=1;fontStyle=1;labelBackgroundColor=none;fontSize=18;" parent="1" vertex="1">
          <mxGeometry x="100" y="15" width="677" height="170" as="geometry" />
        </mxCell>
        <mxCell id="_085nPTa5El5RhCGtDlV-2" value="&lt;div style=&quot;font-size: 13px;&quot;&gt;Research Question 1:&lt;/div&gt;&lt;div style=&quot;font-size: 13px;&quot;&gt;How to improve resource-constrained AIoT device model inference performance&lt;/div&gt;" style="rounded=1;whiteSpace=wrap;html=1;fontFamily=Comic Sans MS;fontSize=13;" parent="1" vertex="1">
          <mxGeometry x="120" y="240" width="190" height="130" as="geometry" />
        </mxCell>
        <mxCell id="_085nPTa5El5RhCGtDlV-3" value="&lt;div style=&quot;font-size: 13px;&quot;&gt;Research question 2:&lt;/div&gt;&lt;div style=&quot;font-size: 13px;&quot;&gt;How to improve the local training effect of AIoT in cloud-edge-device integration scenarios&lt;/div&gt;" style="rounded=1;whiteSpace=wrap;html=1;fontStyle=0;fontFamily=Comic Sans MS;fontSize=13;" parent="1" vertex="1">
          <mxGeometry x="342.75" y="240" width="191.5" height="130" as="geometry" />
        </mxCell>
        <mxCell id="_085nPTa5El5RhCGtDlV-4" value="&lt;div style=&quot;font-size: 13px;&quot;&gt;Research question 3:&lt;/div&gt;&lt;div style=&quot;font-size: 13px;&quot;&gt;How to improve the ability of AIoT intelligent models to resist adversarial sample attacks&lt;/div&gt;" style="rounded=1;whiteSpace=wrap;html=1;fontFamily=Comic Sans MS;fontSize=13;" parent="1" vertex="1">
          <mxGeometry x="570" y="240" width="200" height="130" as="geometry" />
        </mxCell>
        <mxCell id="b_dZQruKx7hnP9HHT105-1" value="Branched Neural Network" style="rounded=0;whiteSpace=wrap;html=1;fontFamily=Comic Sans MS;fontSize=13;" vertex="1" parent="1">
          <mxGeometry x="132.5" y="430" width="635" height="40" as="geometry" />
        </mxCell>
        <mxCell id="b_dZQruKx7hnP9HHT105-2" value="Cloud and AIoT device collaboration architecture" style="rounded=1;whiteSpace=wrap;html=1;fontFamily=Comic Sans MS;fontSize=13;strokeColor=#FF9999;" vertex="1" parent="1">
          <mxGeometry x="130" y="500" width="165" height="120" as="geometry" />
        </mxCell>
        <mxCell id="b_dZQruKx7hnP9HHT105-3" value="&lt;font style=&quot;font-size: 13px;&quot;&gt;federated learning framework&amp;nbsp;&lt;/font&gt;" style="rounded=1;whiteSpace=wrap;html=1;fontFamily=Comic Sans MS;fontSize=13;strokeColor=#FF9999;" vertex="1" parent="1">
          <mxGeometry x="356" y="500" width="165" height="120" as="geometry" />
        </mxCell>
        <mxCell id="b_dZQruKx7hnP9HHT105-4" value="&lt;p style=&quot;margin: 0cm 16.8pt 0.0001pt; line-height: 10.5pt; font-size: 13px;&quot; align=&quot;center&quot; class=&quot;MsoNormal&quot;&gt;&lt;font style=&quot;font-size: 13px;&quot;&gt;Adversarial sample defense framework&lt;/font&gt;&lt;br style=&quot;font-size: 13px;&quot;&gt;&lt;/p&gt;" style="rounded=1;whiteSpace=wrap;html=1;fontFamily=Comic Sans MS;fontSize=13;strokeColor=#FF9999;" vertex="1" parent="1">
          <mxGeometry x="580" y="500" width="165" height="120" as="geometry" />
        </mxCell>
        <mxCell id="b_dZQruKx7hnP9HHT105-6" value="Cloud server + Raspberry Pi simulation platform" style="shape=hexagon;perimeter=hexagonPerimeter2;whiteSpace=wrap;html=1;fixedSize=1;fontFamily=Comic Sans MS;fontSize=13;" vertex="1" parent="1">
          <mxGeometry x="140" y="680" width="360" height="110" as="geometry" />
        </mxCell>
        <mxCell id="b_dZQruKx7hnP9HHT105-7" value="Black box attack, White box attack, Migration attack" style="shape=step;perimeter=stepPerimeter;whiteSpace=wrap;html=1;fixedSize=1;fontFamily=Comic Sans MS;fontSize=13;" vertex="1" parent="1">
          <mxGeometry x="540" y="680" width="220" height="110" as="geometry" />
        </mxCell>
        <mxCell id="b_dZQruKx7hnP9HHT105-10" value="" style="endArrow=classic;html=1;rounded=0;entryX=0.5;entryY=0;entryDx=0;entryDy=0;exitX=0.171;exitY=0.998;exitDx=0;exitDy=0;exitPerimeter=0;" edge="1" parent="1" source="_085nPTa5El5RhCGtDlV-1" target="_085nPTa5El5RhCGtDlV-2">
          <mxGeometry width="50" height="50" relative="1" as="geometry">
            <mxPoint x="400" y="390" as="sourcePoint" />
            <mxPoint x="450" y="340" as="targetPoint" />
          </mxGeometry>
        </mxCell>
        <mxCell id="b_dZQruKx7hnP9HHT105-11" value="" style="endArrow=classic;html=1;rounded=0;exitX=0.5;exitY=1;exitDx=0;exitDy=0;" edge="1" parent="1" source="_085nPTa5El5RhCGtDlV-1">
          <mxGeometry width="50" height="50" relative="1" as="geometry">
            <mxPoint x="438" y="190" as="sourcePoint" />
            <mxPoint x="438" y="240" as="targetPoint" />
          </mxGeometry>
        </mxCell>
        <mxCell id="b_dZQruKx7hnP9HHT105-12" value="" style="endArrow=classic;html=1;rounded=0;entryX=0.5;entryY=0;entryDx=0;entryDy=0;exitX=0.171;exitY=0.998;exitDx=0;exitDy=0;exitPerimeter=0;" edge="1" parent="1" target="_085nPTa5El5RhCGtDlV-4">
          <mxGeometry width="50" height="50" relative="1" as="geometry">
            <mxPoint x="670.5" y="185" as="sourcePoint" />
            <mxPoint x="669.5" y="240" as="targetPoint" />
          </mxGeometry>
        </mxCell>
        <mxCell id="b_dZQruKx7hnP9HHT105-17" value="" style="rounded=1;whiteSpace=wrap;html=1;opacity=30;fillColor=#dae8fc;strokeColor=#6c8ebf;glass=0;labelBorderColor=#45FFF9;strokeWidth=2;textShadow=1;" vertex="1" parent="1">
          <mxGeometry x="88.5" y="210" width="700" height="180" as="geometry" />
        </mxCell>
        <mxCell id="b_dZQruKx7hnP9HHT105-16" value="" style="endArrow=classic;html=1;rounded=0;exitX=0.171;exitY=0.998;exitDx=0;exitDy=0;exitPerimeter=0;" edge="1" parent="1">
          <mxGeometry width="50" height="50" relative="1" as="geometry">
            <mxPoint x="670" y="370" as="sourcePoint" />
            <mxPoint x="670" y="420" as="targetPoint" />
          </mxGeometry>
        </mxCell>
        <mxCell id="b_dZQruKx7hnP9HHT105-19" value="" style="endArrow=classic;html=1;rounded=0;exitX=0.171;exitY=0.998;exitDx=0;exitDy=0;exitPerimeter=0;" edge="1" parent="1">
          <mxGeometry width="50" height="50" relative="1" as="geometry">
            <mxPoint x="214.5" y="370" as="sourcePoint" />
            <mxPoint x="214.5" y="420" as="targetPoint" />
          </mxGeometry>
        </mxCell>
        <mxCell id="b_dZQruKx7hnP9HHT105-20" value="" style="endArrow=classic;html=1;rounded=0;exitX=0.171;exitY=0.998;exitDx=0;exitDy=0;exitPerimeter=0;" edge="1" parent="1">
          <mxGeometry width="50" height="50" relative="1" as="geometry">
            <mxPoint x="438" y="370" as="sourcePoint" />
            <mxPoint x="438" y="420" as="targetPoint" />
          </mxGeometry>
        </mxCell>
        <mxCell id="b_dZQruKx7hnP9HHT105-23" value="" style="endArrow=classic;html=1;rounded=0;exitX=0.59;exitY=1.011;exitDx=0;exitDy=0;exitPerimeter=0;entryX=0.21;entryY=-0.018;entryDx=0;entryDy=0;entryPerimeter=0;" edge="1" parent="1">
          <mxGeometry width="50" height="50" relative="1" as="geometry">
            <mxPoint x="649.5" y="620" as="sourcePoint" />
            <mxPoint x="649.5" y="677" as="targetPoint" />
          </mxGeometry>
        </mxCell>
        <mxCell id="b_dZQruKx7hnP9HHT105-25" value="" style="endArrow=classic;html=1;rounded=0;exitX=0.59;exitY=1.011;exitDx=0;exitDy=0;exitPerimeter=0;entryX=0.21;entryY=-0.018;entryDx=0;entryDy=0;entryPerimeter=0;" edge="1" parent="1">
          <mxGeometry width="50" height="50" relative="1" as="geometry">
            <mxPoint x="430" y="620" as="sourcePoint" />
            <mxPoint x="430" y="677" as="targetPoint" />
          </mxGeometry>
        </mxCell>
        <mxCell id="b_dZQruKx7hnP9HHT105-26" value="" style="endArrow=classic;html=1;rounded=0;exitX=0.59;exitY=1.011;exitDx=0;exitDy=0;exitPerimeter=0;entryX=0.21;entryY=-0.018;entryDx=0;entryDy=0;entryPerimeter=0;" edge="1" parent="1">
          <mxGeometry width="50" height="50" relative="1" as="geometry">
            <mxPoint x="214.5" y="620" as="sourcePoint" />
            <mxPoint x="214.5" y="677" as="targetPoint" />
          </mxGeometry>
        </mxCell>
        <mxCell id="b_dZQruKx7hnP9HHT105-27" value="" style="rounded=1;whiteSpace=wrap;html=1;opacity=30;fillColor=#dae8fc;strokeColor=#00CCCC;glass=0;labelBorderColor=#99FFFF;strokeWidth=4;textShadow=0;" vertex="1" parent="1">
          <mxGeometry x="100" y="420" width="700" height="220" as="geometry" />
        </mxCell>
        <mxCell id="b_dZQruKx7hnP9HHT105-28" value="" style="rounded=1;whiteSpace=wrap;html=1;opacity=30;fillColor=#dae8fc;strokeColor=#00CCCC;glass=0;labelBorderColor=#99FFFF;strokeWidth=4;textShadow=0;" vertex="1" parent="1">
          <mxGeometry x="100" y="655" width="700" height="160" as="geometry" />
        </mxCell>
      </root>
    </mxGraphModel>
  </diagram>
</mxfile>
